<svg xmlns="http://www.w3.org/2000/svg" xmlns:xlink="http://www.w3.org/1999/xlink" viewBox="0 0 281 361">
  <style>
    .cls-1 {
        fill: rgba(0, 0, 0, 0.15);
    }
  </style>
  <title>Surf Pattern</title>
  <g class="cls-1">
    <g>
      <path d="M43.84,5.06S5.4,51.92,37.11,145.43c0,0,1.55,1.11,6.73,1.11Z"/>
      <path d="M47.81,5.06s38.34,46.86,6.63,140.37c0,0-1.46,1.11-6.63,1.11Z"/>
    </g>
    <g>
      <path d="M200.91,329.81s42.08-51.3,7.36-153.67c0,0-1.7-1.21-7.36-1.21Z"/>
      <path d="M196.56,329.81s-42-51.3-7.26-153.67c0,0,1.6-1.21,7.26-1.21Z"/>
    </g>
    <g>
      <path d="M107.48,147.54c13.44-112.38-1.88-142-1.88-142S102,4.2,104.26,13.11c4.43,17.42,1.07,106.2.26,115.61C103.69,138.45,102.64,148.35,107.48,147.54Z"/>
      <path d="M114.05,107.94s9.37,4.65,9.1,13-2.75-3.18-10.38-1.32"/>
      <path d="M112.32,123.8s8.52,4.23,8.27,11.8-2.5-2.89-9.44-1.2"/>
    </g>
    <g>
      <path d="M234.75,71.24a6.08,6.08,0,0,1-2.81-.43,8.35,8.35,0,0,1-2.37-1.67c-.69-.67-1.3-1.39-1.92-2.07a10.74,10.74,0,0,0-2-1.72,4.89,4.89,0,0,0-2.21-.77,5.16,5.16,0,0,0-1.18,0c-.19,0-.39,0-.57.09l-.54.18a5.57,5.57,0,0,0-1.88,1.28,22.24,22.24,0,0,0-1.64,2,20.27,20.27,0,0,1-1.89,2.32,7.73,7.73,0,0,1-2.86,1.81l-.85.23c-.29.07-.57.07-.85.11a8.24,8.24,0,0,1-1.72,0,7.28,7.28,0,0,1-3.25-1.29A12.37,12.37,0,0,1,204,69.13c-.61-.76-1.17-1.47-1.72-2.09a6.46,6.46,0,0,0-1.71-1.39,4.6,4.6,0,0,0-1.94-.44,4.77,4.77,0,0,0-1.94.45A6.59,6.59,0,0,0,195,67.05c-.56.62-1.12,1.34-1.74,2.09A12.69,12.69,0,0,1,191,71.36a7.31,7.31,0,0,1-3.25,1.28,7.62,7.62,0,0,1-1.72,0,6.18,6.18,0,0,1-.85-.11l-.85-.23a7.65,7.65,0,0,1-2.86-1.81,20.4,20.4,0,0,1-1.9-2.32,20.63,20.63,0,0,0-1.63-2A5.67,5.67,0,0,0,176,64.88l-.54-.17a3.56,3.56,0,0,0-.57-.09,5.18,5.18,0,0,0-1.18,0,5,5,0,0,0-2.21.77,10.81,10.81,0,0,0-2,1.73c-.62.67-1.23,1.4-1.92,2.07a8.22,8.22,0,0,1-2.38,1.66,6,6,0,0,1-2.8.43,6.09,6.09,0,0,0,2.57-.87A7.8,7.8,0,0,0,167,68.54a25.79,25.79,0,0,1,3.59-4.49,6.68,6.68,0,0,1,2.89-1.34,7.78,7.78,0,0,1,1.6-.11,7.36,7.36,0,0,1,.81.06l.82.17a7.44,7.44,0,0,1,2.84,1.6,22.55,22.55,0,0,1,2,2.18,18.12,18.12,0,0,0,1.76,1.89,5.16,5.16,0,0,0,1.86,1.08c.17,0,.34.07.5.12a7.81,7.81,0,0,0,1.6,0,4.19,4.19,0,0,0,1.85-.83,10.49,10.49,0,0,0,1.65-1.72c.55-.7,1.12-1.47,1.79-2.25a9.84,9.84,0,0,1,2.6-2.11l.83-.38c.28-.1.58-.17.87-.25l.44-.1.43,0,.88-.07.87.07.44,0,.44.11c.29.08.58.14.87.25l.82.37a9.66,9.66,0,0,1,2.59,2.12c.68.78,1.25,1.55,1.8,2.24a11,11,0,0,0,1.66,1.72,4.14,4.14,0,0,0,1.85.83,6.15,6.15,0,0,0,1.6,0l.5-.12a5,5,0,0,0,1.86-1.07,19.19,19.19,0,0,0,1.76-1.89,21.44,21.44,0,0,1,2-2.18,7.18,7.18,0,0,1,2.84-1.6l.81-.18a5.51,5.51,0,0,1,.81,0,7.23,7.23,0,0,1,1.61.11,6.48,6.48,0,0,1,2.88,1.34,25.37,25.37,0,0,1,3.59,4.48,8,8,0,0,0,1.93,1.84A6.26,6.26,0,0,0,234.75,71.24Z"/>
      <path d="M234.75,54.81a6.2,6.2,0,0,1-2.81-.42,8.55,8.55,0,0,1-2.37-1.67c-.69-.67-1.3-1.4-1.92-2.07a10.44,10.44,0,0,0-2-1.73,4.89,4.89,0,0,0-2.21-.77,5.8,5.8,0,0,0-1.18,0,5.21,5.21,0,0,0-.57.1l-.54.17a5.57,5.57,0,0,0-1.88,1.28,21.13,21.13,0,0,0-1.64,2,21.11,21.11,0,0,1-1.89,2.31,7.61,7.61,0,0,1-2.86,1.81l-.85.23a6.39,6.39,0,0,1-.85.11,7.61,7.61,0,0,1-1.72,0,7.38,7.38,0,0,1-3.25-1.28A12.4,12.4,0,0,1,204,52.7c-.61-.75-1.17-1.47-1.72-2.09a6.41,6.41,0,0,0-1.71-1.38,4.32,4.32,0,0,0-1.94-.44,4.46,4.46,0,0,0-1.94.45A6.54,6.54,0,0,0,195,50.62c-.56.62-1.12,1.34-1.74,2.09A12.37,12.37,0,0,1,191,54.93a7.33,7.33,0,0,1-3.25,1.29,9.19,9.19,0,0,1-2.57-.09l-.85-.24a7.65,7.65,0,0,1-2.86-1.81,21.25,21.25,0,0,1-1.9-2.31,18.51,18.51,0,0,0-1.63-2A5.7,5.7,0,0,0,176,48.45l-.54-.17a5.21,5.21,0,0,0-.57-.09,5.83,5.83,0,0,0-1.18,0,5,5,0,0,0-2.21.78,10.38,10.38,0,0,0-2,1.72c-.62.68-1.23,1.4-1.92,2.07a8.45,8.45,0,0,1-2.38,1.67,6.16,6.16,0,0,1-2.8.42A6.22,6.22,0,0,0,165,54,7.84,7.84,0,0,0,167,52.11a25.37,25.37,0,0,1,3.59-4.48,6.57,6.57,0,0,1,2.89-1.34,7.79,7.79,0,0,1,1.6-.12,7.36,7.36,0,0,1,.81.06l.82.17A7.33,7.33,0,0,1,179.52,48a22.48,22.48,0,0,1,2,2.17,18.27,18.27,0,0,0,1.76,1.9,5,5,0,0,0,1.86,1.07l.5.12a6.15,6.15,0,0,0,1.6,0,4.19,4.19,0,0,0,1.85-.83,10.49,10.49,0,0,0,1.65-1.72c.55-.69,1.12-1.46,1.79-2.24a9.68,9.68,0,0,1,2.6-2.12L196,46c.28-.1.58-.16.87-.24l.44-.11.43,0,.88-.07.87.07.44,0c.15,0,.29.07.44.1s.58.15.87.25l.82.38a9.47,9.47,0,0,1,2.59,2.12c.68.77,1.25,1.54,1.8,2.24a11.91,11.91,0,0,0,1.66,1.72,4.25,4.25,0,0,0,1.85.83,6.62,6.62,0,0,0,1.6,0l.5-.11a5.16,5.16,0,0,0,1.86-1.08,18.12,18.12,0,0,0,1.76-1.89,22.55,22.55,0,0,1,2-2.18,7.44,7.44,0,0,1,2.84-1.6l.81-.18c.27,0,.54,0,.81,0a7.23,7.23,0,0,1,1.61.11,6.48,6.48,0,0,1,2.88,1.34,25.37,25.37,0,0,1,3.59,4.48A7.84,7.84,0,0,0,232.17,54,6.26,6.26,0,0,0,234.75,54.81Z"/>
      <path d="M234.75,87.12a6.08,6.08,0,0,1-2.81-.43A8.35,8.35,0,0,1,229.57,85c-.69-.67-1.3-1.39-1.92-2.07a10.74,10.74,0,0,0-2-1.72,5,5,0,0,0-2.21-.78,5.8,5.8,0,0,0-1.18,0,5.21,5.21,0,0,0-.57.09l-.54.18A5.57,5.57,0,0,0,219.32,82a22.24,22.24,0,0,0-1.64,2,21.18,21.18,0,0,1-1.89,2.32,7.73,7.73,0,0,1-2.86,1.81l-.85.23c-.29.07-.57.07-.85.11a8.24,8.24,0,0,1-1.72,0,7.28,7.28,0,0,1-3.25-1.29A12.37,12.37,0,0,1,204,85c-.61-.76-1.17-1.47-1.72-2.09a6.46,6.46,0,0,0-1.71-1.39,4.45,4.45,0,0,0-3.88,0A6.59,6.59,0,0,0,195,82.93c-.56.62-1.12,1.33-1.74,2.09A12.69,12.69,0,0,1,191,87.24a7.31,7.31,0,0,1-3.25,1.28,7.62,7.62,0,0,1-1.72,0,6.18,6.18,0,0,1-.85-.11l-.85-.23a7.65,7.65,0,0,1-2.86-1.81,20.4,20.4,0,0,1-1.9-2.32,20.63,20.63,0,0,0-1.63-2A5.67,5.67,0,0,0,176,80.76l-.54-.17a3.56,3.56,0,0,0-.57-.09,5.18,5.18,0,0,0-1.18,0,4.85,4.85,0,0,0-2.21.77,10.44,10.44,0,0,0-2,1.73c-.62.67-1.23,1.39-1.92,2.07a8.42,8.42,0,0,1-2.38,1.66,6,6,0,0,1-2.8.43,6.09,6.09,0,0,0,2.57-.87A7.8,7.8,0,0,0,167,84.42a25.79,25.79,0,0,1,3.59-4.49,6.68,6.68,0,0,1,2.89-1.34,7.78,7.78,0,0,1,1.6-.11,7.36,7.36,0,0,1,.81.06l.82.17a7.31,7.31,0,0,1,2.84,1.6,22.55,22.55,0,0,1,2,2.18,18.12,18.12,0,0,0,1.76,1.89,5.16,5.16,0,0,0,1.86,1.08,4.05,4.05,0,0,1,.5.12,7.81,7.81,0,0,0,1.6,0,4.31,4.31,0,0,0,1.85-.83A10.49,10.49,0,0,0,190.77,83c.55-.7,1.12-1.47,1.79-2.25a9.65,9.65,0,0,1,2.6-2.11l.83-.38c.28-.1.58-.17.87-.25l.44-.1.43,0,.88-.07.87.07.44,0,.44.11c.29.08.58.14.87.25l.82.37a9.66,9.66,0,0,1,2.59,2.12c.68.78,1.25,1.55,1.8,2.24a11.41,11.41,0,0,0,1.66,1.72,4.14,4.14,0,0,0,1.85.83,6.15,6.15,0,0,0,1.6,0l.5-.12a5.13,5.13,0,0,0,1.86-1.07,19.19,19.19,0,0,0,1.76-1.89,21.44,21.44,0,0,1,2-2.18,7.18,7.18,0,0,1,2.84-1.6l.81-.18a5.51,5.51,0,0,1,.81-.05,7.23,7.23,0,0,1,1.61.11,6.38,6.38,0,0,1,2.88,1.34,25.37,25.37,0,0,1,3.59,4.48,7.8,7.8,0,0,0,1.93,1.83A6.13,6.13,0,0,0,234.75,87.12Z"/>
    </g>
    <g>
      <path d="M91.25,267.74a6.08,6.08,0,0,1-2.81-.43,8.35,8.35,0,0,1-2.37-1.67c-.69-.67-1.3-1.39-1.92-2.07a10.74,10.74,0,0,0-2-1.72,4.89,4.89,0,0,0-2.21-.77,5.16,5.16,0,0,0-1.18,0c-.19,0-.39,0-.57.09l-.54.18a5.57,5.57,0,0,0-1.88,1.28,22.24,22.24,0,0,0-1.64,2A20.27,20.27,0,0,1,72.29,267a7.73,7.73,0,0,1-2.86,1.81l-.85.23c-.29.07-.57.07-.85.11a8.24,8.24,0,0,1-1.72,0,7.28,7.28,0,0,1-3.25-1.29,12.37,12.37,0,0,1-2.28-2.22c-.61-.76-1.17-1.47-1.72-2.09a6.46,6.46,0,0,0-1.71-1.39,4.6,4.6,0,0,0-1.94-.44,4.77,4.77,0,0,0-1.94.45,6.59,6.59,0,0,0-1.69,1.39c-.56.62-1.12,1.34-1.74,2.09a12.69,12.69,0,0,1-2.28,2.22,7.31,7.31,0,0,1-3.25,1.28,7.62,7.62,0,0,1-1.72,0,6.18,6.18,0,0,1-.85-.11l-.85-.23A7.65,7.65,0,0,1,37.93,267a20.4,20.4,0,0,1-1.9-2.32,20.63,20.63,0,0,0-1.63-2,5.67,5.67,0,0,0-1.88-1.28l-.54-.17a3.56,3.56,0,0,0-.57-.09,5.18,5.18,0,0,0-1.18,0,5,5,0,0,0-2.21.77,10.81,10.81,0,0,0-1.95,1.73c-.62.67-1.23,1.4-1.92,2.07a8.22,8.22,0,0,1-2.38,1.66,6,6,0,0,1-2.8.43,6.09,6.09,0,0,0,2.57-.87A7.8,7.8,0,0,0,23.47,265a25.79,25.79,0,0,1,3.59-4.49A6.68,6.68,0,0,1,30,259.21a7.78,7.78,0,0,1,1.6-.11,7.36,7.36,0,0,1,.81.06l.82.17a7.44,7.44,0,0,1,2.84,1.6,22.55,22.55,0,0,1,2,2.18A18.12,18.12,0,0,0,39.81,265a5.16,5.16,0,0,0,1.86,1.08c.17,0,.34.07.5.12a7.81,7.81,0,0,0,1.6,0,4.19,4.19,0,0,0,1.85-.83,10.49,10.49,0,0,0,1.65-1.72c.55-.7,1.12-1.47,1.79-2.25a9.84,9.84,0,0,1,2.6-2.11l.83-.38c.28-.1.58-.17.87-.25l.44-.1.43,0,.88-.07.87.07.44,0,.44.11c.29.08.58.14.87.25l.82.37a9.66,9.66,0,0,1,2.59,2.12c.68.78,1.25,1.55,1.8,2.24a11,11,0,0,0,1.66,1.72,4.14,4.14,0,0,0,1.85.83,6.15,6.15,0,0,0,1.6,0l.5-.12A5,5,0,0,0,70.41,265a19.19,19.19,0,0,0,1.76-1.89,21.44,21.44,0,0,1,2-2.18,7.18,7.18,0,0,1,2.84-1.6l.81-.18a5.51,5.51,0,0,1,.81-.05,7.23,7.23,0,0,1,1.61.11,6.48,6.48,0,0,1,2.88,1.34A25.37,25.37,0,0,1,86.74,265a8,8,0,0,0,1.93,1.84A6.26,6.26,0,0,0,91.25,267.74Z"/>
      <path d="M91.25,251.31a6.2,6.2,0,0,1-2.81-.42,8.55,8.55,0,0,1-2.37-1.67c-.69-.67-1.3-1.4-1.92-2.07a10.44,10.44,0,0,0-2-1.73,4.89,4.89,0,0,0-2.21-.77,5.8,5.8,0,0,0-1.18,0,5.21,5.21,0,0,0-.57.1l-.54.17a5.57,5.57,0,0,0-1.88,1.28,21.13,21.13,0,0,0-1.64,2,21.11,21.11,0,0,1-1.89,2.31,7.61,7.61,0,0,1-2.86,1.81l-.85.23a6.39,6.39,0,0,1-.85.11,7.61,7.61,0,0,1-1.72,0,7.38,7.38,0,0,1-3.25-1.28,12.4,12.4,0,0,1-2.28-2.23c-.61-.75-1.17-1.47-1.72-2.09a6.41,6.41,0,0,0-1.71-1.38,4.32,4.32,0,0,0-1.94-.44,4.46,4.46,0,0,0-1.94.45,6.54,6.54,0,0,0-1.69,1.38c-.56.62-1.12,1.34-1.74,2.09a12.37,12.37,0,0,1-2.28,2.22,7.33,7.33,0,0,1-3.25,1.29,9.19,9.19,0,0,1-2.57-.09l-.85-.24a7.65,7.65,0,0,1-2.86-1.81,21.25,21.25,0,0,1-1.9-2.31,18.51,18.51,0,0,0-1.63-2A5.7,5.7,0,0,0,32.52,245l-.54-.17a5.21,5.21,0,0,0-.57-.09,5.83,5.83,0,0,0-1.18,0,5,5,0,0,0-2.21.78,10.38,10.38,0,0,0-1.95,1.72c-.62.68-1.23,1.4-1.92,2.07a8.45,8.45,0,0,1-2.38,1.67,6.16,6.16,0,0,1-2.8.42,6.22,6.22,0,0,0,2.57-.86,7.84,7.84,0,0,0,1.93-1.84,25.37,25.37,0,0,1,3.59-4.48A6.57,6.57,0,0,1,30,242.79a7.79,7.79,0,0,1,1.6-.12,7.36,7.36,0,0,1,.81.06l.82.17A7.33,7.33,0,0,1,36,244.51a22.48,22.48,0,0,1,2,2.17,18.27,18.27,0,0,0,1.76,1.9,5,5,0,0,0,1.86,1.07l.5.12a6.15,6.15,0,0,0,1.6,0,4.19,4.19,0,0,0,1.85-.83,10.49,10.49,0,0,0,1.65-1.72c.55-.69,1.12-1.46,1.79-2.24a9.68,9.68,0,0,1,2.6-2.12l.83-.38c.28-.1.58-.16.87-.24l.44-.11.43,0,.88-.07.87.07.44.05c.15,0,.29.07.44.1s.58.15.87.25l.82.38A9.47,9.47,0,0,1,61.14,245c.68.77,1.25,1.54,1.8,2.24a11.91,11.91,0,0,0,1.66,1.72,4.25,4.25,0,0,0,1.85.83,6.62,6.62,0,0,0,1.6,0l.5-.11a5.16,5.16,0,0,0,1.86-1.08,18.12,18.12,0,0,0,1.76-1.89,22.55,22.55,0,0,1,2-2.18,7.44,7.44,0,0,1,2.84-1.6l.81-.18c.27,0,.54,0,.81,0a7.23,7.23,0,0,1,1.61.11,6.48,6.48,0,0,1,2.88,1.34,25.37,25.37,0,0,1,3.59,4.48,7.84,7.84,0,0,0,1.93,1.84A6.26,6.26,0,0,0,91.25,251.31Z"/>
      <path d="M91.25,283.62a6.08,6.08,0,0,1-2.81-.43,8.35,8.35,0,0,1-2.37-1.67c-.69-.67-1.3-1.39-1.92-2.07a10.74,10.74,0,0,0-2-1.72A5,5,0,0,0,80,277a5.8,5.8,0,0,0-1.18,0,5.21,5.21,0,0,0-.57.09l-.54.18a5.57,5.57,0,0,0-1.88,1.28,22.24,22.24,0,0,0-1.64,2,21.18,21.18,0,0,1-1.89,2.32,7.73,7.73,0,0,1-2.86,1.81l-.85.23c-.29.07-.57.07-.85.11A8.24,8.24,0,0,1,66,285a7.28,7.28,0,0,1-3.25-1.29,12.37,12.37,0,0,1-2.28-2.22c-.61-.76-1.17-1.47-1.72-2.09A6.46,6.46,0,0,0,57.05,278a4.45,4.45,0,0,0-3.88,0,6.59,6.59,0,0,0-1.69,1.39c-.56.62-1.12,1.33-1.74,2.09a12.69,12.69,0,0,1-2.28,2.22A7.31,7.31,0,0,1,44.21,285a7.62,7.62,0,0,1-1.72,0,6.18,6.18,0,0,1-.85-.11l-.85-.23a7.65,7.65,0,0,1-2.86-1.81,20.4,20.4,0,0,1-1.9-2.32,20.63,20.63,0,0,0-1.63-2,5.67,5.67,0,0,0-1.88-1.28l-.54-.17a3.56,3.56,0,0,0-.57-.09,5.18,5.18,0,0,0-1.18,0,4.85,4.85,0,0,0-2.21.77,10.44,10.44,0,0,0-1.95,1.73c-.62.67-1.23,1.39-1.92,2.07a8.42,8.42,0,0,1-2.38,1.66,6,6,0,0,1-2.8.43,6.09,6.09,0,0,0,2.57-.87,7.8,7.8,0,0,0,1.93-1.83,25.79,25.79,0,0,1,3.59-4.49A6.68,6.68,0,0,1,30,275.09a7.78,7.78,0,0,1,1.6-.11,7.36,7.36,0,0,1,.81.06l.82.17a7.31,7.31,0,0,1,2.84,1.6,22.55,22.55,0,0,1,2,2.18,18.12,18.12,0,0,0,1.76,1.89A5.16,5.16,0,0,0,41.67,282a4.05,4.05,0,0,1,.5.12,7.81,7.81,0,0,0,1.6,0,4.31,4.31,0,0,0,1.85-.83,10.49,10.49,0,0,0,1.65-1.72c.55-.7,1.12-1.47,1.79-2.25a9.65,9.65,0,0,1,2.6-2.11l.83-.38c.28-.1.58-.17.87-.25l.44-.1.43,0,.88-.07.87.07.44,0,.44.11c.29.08.58.14.87.25l.82.37a9.66,9.66,0,0,1,2.59,2.12c.68.78,1.25,1.55,1.8,2.24a11.41,11.41,0,0,0,1.66,1.72,4.14,4.14,0,0,0,1.85.83,6.15,6.15,0,0,0,1.6,0l.5-.12a5.13,5.13,0,0,0,1.86-1.07A19.19,19.19,0,0,0,72.17,279a21.44,21.44,0,0,1,2-2.18,7.18,7.18,0,0,1,2.84-1.6l.81-.18a5.51,5.51,0,0,1,.81-.05,7.23,7.23,0,0,1,1.61.11,6.38,6.38,0,0,1,2.88,1.34,25.37,25.37,0,0,1,3.59,4.48,7.8,7.8,0,0,0,1.93,1.83A6.13,6.13,0,0,0,91.25,283.62Z"/>
    </g>
  </g>
</svg>