<?xml version="1.0" standalone="no"?>
<!DOCTYPE svg PUBLIC "-//W3C//DTD SVG 20010904//EN"
 "http://www.w3.org/TR/2001/REC-SVG-20010904/DTD/svg10.dtd">
<svg version="1.0" xmlns="http://www.w3.org/2000/svg"
 width="400.000000pt" height="400.000000pt" viewBox="0 0 400.000000 400.000000"
 preserveAspectRatio="xMidYMid meet">
<metadata>
Created by potrace 1.14, written by Peter Selinger 2001-2017
</metadata>
<g transform="translate(0.000000,400.000000) scale(0.100000,-0.100000)"
fill="#000000" stroke="none">
<path d="M1928 3895 c-2 -2 -41 -5 -88 -8 -47 -4 -96 -8 -110 -11 -14 -3 -43
-7 -64 -11 -51 -7 -186 -41 -256 -65 -466 -154 -859 -487 -1087 -920 -102
-194 -174 -419 -198 -620 -3 -25 -8 -56 -10 -70 -7 -31 -7 -343 -1 -388 3 -18
8 -52 11 -75 11 -76 16 -101 27 -142 5 -22 12 -51 15 -65 10 -61 77 -240 127
-343 72 -147 99 -192 187 -311 201 -271 480 -490 779 -614 92 -39 236 -87 282
-96 13 -2 41 -9 63 -14 22 -6 60 -14 85 -17 25 -3 77 -10 115 -14 74 -10 426
-8 442 2 5 3 31 8 57 12 26 3 68 10 94 16 26 6 55 12 65 14 111 23 328 109
463 184 346 191 646 517 803 871 53 119 57 131 79 200 39 123 61 221 80 360
12 89 7 428 -7 510 -47 273 -137 515 -276 735 -138 219 -336 419 -565 571
-152 102 -414 218 -559 249 -176 38 -191 40 -286 50 -64 7 -263 14 -267 10z"/>
</g>
</svg>
