<svg xmlns="http://www.w3.org/2000/svg" viewBox="0 0 155.57 155.57">
  <title>16 hours Access</title>
  <g id="Services">
    <g>
      <g>
        <g>
          <path d="M127.65,117.42a2,2,0,0,1-.57,1.45,2.38,2.38,0,0,1-1.69.68c-3.46,0-7,0-10.53,0a2.09,2.09,0,0,1-2.27-2.25c-.06-3.41-.06-7,0-10.53a2.12,2.12,0,0,1,2.13-2.26h0a2.08,2.08,0,0,1,2,2.3c0,.87,0,1.74,0,2.61v1.34l1.2,1,.16-.6a3.75,3.75,0,0,0,.09-.39,1.32,1.32,0,0,1,.17-.53,52,52,0,0,0-29.14-83,51.3,51.3,0,0,0-38.64,6.26c-.21.11-.4.24-.59.36l-.72.45a2.2,2.2,0,0,1-3.18-.53c-.66-1.09-.3-2.26.95-3.07a53.72,53.72,0,0,1,18.27-7.65c18-3.73,34.23.16,48.16,11.55a53.75,53.75,0,0,1,20.1,37.89,55.27,55.27,0,0,1-12.54,41.19,4.74,4.74,0,0,0-.4.58l-.31.45-.4.61h2.33c1.08,0,2.07,0,3,0A2.12,2.12,0,0,1,127.65,117.42Z"/>
          <path d="M108.77,123.83a3,3,0,0,1-1.33,1.7A52,52,0,0,1,87.79,133C71,135.72,56,131.94,43,121.77A54,54,0,0,1,22,83.09,55.23,55.23,0,0,1,34.52,41.9c.13-.16.25-.34.41-.57s.17-.27.28-.44l.42-.61H30.35c-1.46,0-2.42-.84-2.43-2.09a2.18,2.18,0,0,1,2.42-2.12c3.52,0,7,0,10.25,0A2.12,2.12,0,0,1,43,38.35c.06,3.46,0,7,0,10.54a2.36,2.36,0,0,1-.65,1.64,2.09,2.09,0,0,1-1.5.59c-1.22,0-2-.91-2-2.33,0-.87,0-1.73,0-2.61V44.84L37.71,44l-.2.5c0,.12-.07.25-.11.37a2,2,0,0,1-.23.54A52,52,0,0,0,60.42,126.6c15.5,5.32,30.55,3.78,44.73-4.6,1.34-.78,2.11-.85,2.76-.24A2.92,2.92,0,0,1,108.77,123.83Z"/>
          <path d="M119.15,80.92a3.26,3.26,0,1,1,0-6.51,3.26,3.26,0,1,1,0,6.51Z"/>
          <path d="M36.48,80.92a3.26,3.26,0,1,1,3.28-3.3A3.26,3.26,0,0,1,36.48,80.92Z"/>
          <path d="M80.47,38A2.85,2.85,0,0,1,79.65,40a2.91,2.91,0,0,1-2.07.83A2.85,2.85,0,0,1,75.51,40a2.77,2.77,0,0,1-.81-2,2.82,2.82,0,0,1,2.84-2.82h.06a2.91,2.91,0,0,1,2,.8A2.81,2.81,0,0,1,80.47,38Z"/>
          <path d="M80.86,117.57a3.21,3.21,0,0,1-3.25,3.32,3.26,3.26,0,0,1-.11-6.52A3.2,3.2,0,0,1,80.86,117.57Z"/>
        </g>
      </g>
      <g>
        <path d="M64.61,98.2a2,2,0,0,1-2-2v-35l-3.72,1.61a2,2,0,1,1-1.57-3.61l6.47-2.82a2,2,0,0,1,1.87.16,2,2,0,0,1,.89,1.65v38A2,2,0,0,1,64.61,98.2Z"/>
        <path d="M96.17,76.12A13.21,13.21,0,0,0,77.43,76a1.07,1.07,0,0,0-.16.14,13.13,13.13,0,0,0-3.79,9.27,1.34,1.34,0,0,0,0,.2,13.24,13.24,0,1,0,22.68-9.47ZM86.72,94.68a9.29,9.29,0,0,1-6.63-15.8A9.29,9.29,0,0,1,96,85.39,9.3,9.3,0,0,1,86.72,94.68Z"/>
        <path d="M75.45,71.59a2,2,0,0,1-2-2A13.26,13.26,0,0,1,86.72,56.38,14.71,14.71,0,0,1,94.61,59c2.9,2,4.5,4.67,4.5,7.5a2,2,0,0,1-3.94,0c0-3.42-5.12-6.2-8.45-6.2a9.31,9.31,0,0,0-9.3,9.3A2,2,0,0,1,75.45,71.59Z"/>
        <path d="M75.45,87.36a2,2,0,0,1-2-2V69.62a2,2,0,1,1,3.94,0V85.39A2,2,0,0,1,75.45,87.36Z"/>
      </g>
    </g>
  </g>
</svg>
