<svg xmlns="http://www.w3.org/2000/svg" viewBox="0 0 155.57 155.57">
  <title>Board Lock</title>
  <g>
    <path d="M77.79,135.08a57.29,57.29,0,1,1,57.29-57.29A57.35,57.35,0,0,1,77.79,135.08Zm0-110a52.67,52.67,0,1,0,52.66,52.67A52.73,52.73,0,0,0,77.79,25.12Z"/>
    <g>
      <g>
        <path d="M62.41,69.4c0-4.3,0-8.35,0-12.4a16.12,16.12,0,0,1,4.52-11.9A15.65,15.65,0,0,1,84.2,41.65c6.13,2.64,9.41,7.4,9.61,14.11.12,3.8,0,7.61,0,11.42V69.4c1.13,0,2.05,0,3,0,4,.09,6.58,2.46,6.88,6.42.15,1.92.06,3.86.06,5.8q0,11.05,0,22.1c0,4.81-2.55,7.42-7.36,7.43q-18.63,0-37.27,0c-4.77,0-7.33-2.64-7.34-7.47q0-13.4,0-26.78c0-4.88,2.63-7.48,7.52-7.5Zm15.26,39.07c6.37,0,12.73,0,19.1,0,2.72,0,4.22-1.45,4.23-4.14q0-13.95,0-27.9c0-2.91-1.54-4.32-4.47-4.32q-18.73,0-37.46,0c-3,0-4.58,1.58-4.59,4.65q0,13.48,0,27c0,3.27,1.51,4.74,4.84,4.75Q68.49,108.5,77.67,108.47Zm-12-39.2H91c0-.6.12-1.08.11-1.56-.08-4.55.14-9.13-.33-13.64A12.4,12.4,0,0,0,79,43.27c-6.54-.24-12.35,3.7-13.18,10C65.09,58.45,65.63,63.81,65.63,69.27Z"/>
      </g>
      <path d="M78,81.13a4.69,4.69,0,0,1,4.69,4.68,4.64,4.64,0,0,1-1.35,3.29l-.71.71v7.25a2.63,2.63,0,0,1-5.25,0V89.81l-.71-.71a4.64,4.64,0,0,1-1.35-3.29A4.69,4.69,0,0,1,78,81.13m0-2.44a7.12,7.12,0,0,0-5.06,12.13v6.24a5.06,5.06,0,0,0,10.12,0V90.82A7.11,7.11,0,0,0,78,78.69Z"/>
    </g>
  </g>
</svg>
