<svg xmlns="http://www.w3.org/2000/svg" viewBox="0 0 155.57 155.57">
  <title>Shower</title>
  <g>
    <path d="M77.79,135.08a57.29,57.29,0,1,1,57.29-57.29A57.35,57.35,0,0,1,77.79,135.08Zm0-110a52.67,52.67,0,1,0,52.66,52.67A52.73,52.73,0,0,0,77.79,25.12Z"/>
    <g>
      <g>
        <path d="M98.43,118.25A1.42,1.42,0,0,1,97,116.84V53c0-.13.26-5.68-3.26-9.4-2.19-2.31-5.43-3.48-9.62-3.48s-7.48,1.18-9.74,3.51c-3.62,3.76-3.47,9.27-3.47,9.32a1.42,1.42,0,0,1-2.83.1c0-.28-.18-6.77,4.27-11.38,2.81-2.9,6.77-4.38,11.77-4.38s8.94,1.48,11.69,4.39c4.36,4.62,4,11.13,4,11.4v63.73A1.41,1.41,0,0,1,98.43,118.25Z"/>
        <path d="M82.08,67.19h-25A1.23,1.23,0,0,1,55.89,66a13.71,13.71,0,0,1,27.42,0A1.23,1.23,0,0,1,82.08,67.19ZM58.42,64.73H80.78a11.25,11.25,0,0,0-22.36,0Z"/>
        <path d="M61.06,73.26a1.58,1.58,0,0,1,1.55,1.53c0,.38,0,.76,0,1.14h0c0,.37,0,.74,0,1.1a1.6,1.6,0,0,1-1.54,1.56,1.54,1.54,0,0,1-1.64-1.46c0-.8,0-1.61,0-2.41a1.55,1.55,0,0,1,1.62-1.46"/>
        <path d="M62.62,86.62c0,.36,0,.73,0,1.1a1.59,1.59,0,0,1-1.54,1.55,1.54,1.54,0,0,1-1.64-1.46c0-.8,0-1.61,0-2.41a1.55,1.55,0,0,1,1.62-1.46,1.59,1.59,0,0,1,1.55,1.54c0,.38,0,.76,0,1.14Z"/>
        <path d="M78.14,73.26a1.6,1.6,0,0,1,1.56,1.53c0,.38,0,.76,0,1.14s0,.76,0,1.13a1.58,1.58,0,0,1-1.56,1.53,1.56,1.56,0,0,1-1.62-1.49c0-.78,0-1.57,0-2.35a1.56,1.56,0,0,1,1.62-1.49"/>
        <path d="M79.7,86.62c0,.37,0,.73,0,1.1a1.57,1.57,0,0,1-1.57,1.55,1.55,1.55,0,0,1-1.61-1.5q0-1.17,0-2.34a1.57,1.57,0,0,1,1.63-1.49,1.6,1.6,0,0,1,1.55,1.54C79.71,85.86,79.7,86.24,79.7,86.62Z"/>
        <path d="M69.59,73.26a1.58,1.58,0,0,1,1.56,1.49c0,.39,0,.78,0,1.17h0c0,.38,0,.76,0,1.14a1.6,1.6,0,0,1-1.56,1.53A1.55,1.55,0,0,1,68,77.14a22.24,22.24,0,0,1,0-2.45,1.54,1.54,0,0,1,1.6-1.43"/>
        <path d="M71.16,86.6c0,.38,0,.76,0,1.14a1.58,1.58,0,0,1-1.56,1.53A1.53,1.53,0,0,1,68,87.82a22.07,22.07,0,0,1,0-2.44,1.54,1.54,0,0,1,1.6-1.44,1.58,1.58,0,0,1,1.56,1.49c0,.39,0,.78,0,1.17Z"/>
        <path d="M62.62,97.26c0,.36,0,.73,0,1.1a1.59,1.59,0,0,1-1.54,1.55,1.54,1.54,0,0,1-1.64-1.46c0-.8,0-1.61,0-2.41a1.55,1.55,0,0,1,1.62-1.46,1.59,1.59,0,0,1,1.55,1.54c0,.38,0,.76,0,1.14Z"/>
        <path d="M79.7,97.26c0,.37,0,.73,0,1.1a1.57,1.57,0,0,1-1.57,1.55,1.55,1.55,0,0,1-1.61-1.5q0-1.17,0-2.34a1.57,1.57,0,0,1,1.63-1.49,1.6,1.6,0,0,1,1.55,1.54C79.71,96.5,79.7,96.88,79.7,97.26Z"/>
        <path d="M71.16,97.24c0,.38,0,.76,0,1.14a1.58,1.58,0,0,1-1.56,1.53A1.53,1.53,0,0,1,68,98.46,22.07,22.07,0,0,1,68,96a1.54,1.54,0,0,1,1.6-1.44,1.58,1.58,0,0,1,1.56,1.49c0,.39,0,.78,0,1.17Z"/>
      </g>
    </g>
  </g>
</svg>
