<svg xmlns="http://www.w3.org/2000/svg" viewBox="0 0 155.57 155.57">
  <title>Smart Lock</title>
  <g>
    <path d="M77.79,135.08a57.29,57.29,0,1,1,57.29-57.29A57.35,57.35,0,0,1,77.79,135.08Zm0-110a52.67,52.67,0,1,0,52.66,52.67A52.73,52.73,0,0,0,77.79,25.12Z"/>
    <g>
      <g>
        <g>
          <path d="M89.71,104.31H77.37a4.57,4.57,0,0,1-4.53-3.64,4.45,4.45,0,0,1,2.48-5,5.1,5.1,0,0,1,2.05-.46q14.3,0,28.57,0a4.55,4.55,0,0,1,4.38,3.07l.1.21.14.3v1.89l0,.13a4.82,4.82,0,0,1-3.48,3.35,5.39,5.39,0,0,1-1.09.13Zm4.58-7.49H77.38a3.52,3.52,0,0,0-1.4.32,2.88,2.88,0,0,0-1.58,3.18,2.91,2.91,0,0,0,3,2.38q14.28,0,28.56,0a3.55,3.55,0,0,0,.75-.09A3.09,3.09,0,0,0,109,100.4V99.17a2.92,2.92,0,0,1-.14-.31,2.93,2.93,0,0,0-2.89-2Z"/>
          <path d="M78.85,116.8H75.57a.67.67,0,0,1-.24,0l-.17-.06-.14,0c-7.46-1.16-12.52-5.33-15.06-12.39a18.68,18.68,0,0,1-.68-2.67c-.08-.39-.16-.79-.25-1.17a1.1,1.1,0,0,1,0-.18V60.58a.8.8,0,0,1,.14-.45A2.75,2.75,0,0,1,61.6,59H93c1.87,0,2.59.73,2.59,2.59v31.9a.79.79,0,0,1-.75.79h-.26l-.58,0H83.27a.81.81,0,0,1-.62-.29,7.42,7.42,0,0,0-5-2.2,8,8,0,0,0-8.3,7.69,7.91,7.91,0,0,0,2.29,5.83,8.06,8.06,0,0,0,5.7,2.35h0a7.33,7.33,0,0,0,5.24-2.09l.13-.13a.79.79,0,0,1,.58-.25H93a.79.79,0,0,1,.72,1.14l-.15.31c-.09.2-.18.38-.28.56a18.09,18.09,0,0,1-13.84,9.43l-.24.06-.2.06Zm-3.14-1.59,3.09,0,.47-.11a16.35,16.35,0,0,0,12.47-8.27H83.63a8.93,8.93,0,0,1-6.28,2.47h0a9.5,9.5,0,0,1-9.57-9.81,9.55,9.55,0,0,1,10-9.24,9,9,0,0,1,5.89,2.49H94V61.59c0-1,0-1-1-1H87q-12.69,0-25.38,0h0a1.34,1.34,0,0,0-1,.28v39.28c.09.38.16.75.24,1.13a16.56,16.56,0,0,0,.62,2.45c2.32,6.47,7,10.29,13.81,11.36A2.1,2.1,0,0,1,75.71,115.21ZM94.78,93.49h0ZM79.65,84.33H67.71c-1.68,0-2.45-.76-2.45-2.41q0-7.77,0-15.54A2.08,2.08,0,0,1,67.59,64H87a2.09,2.09,0,0,1,2.38,2.34V82h0a2.11,2.11,0,0,1-2.42,2.37Zm-2.42-1.6h9.68c.77,0,.82-.1.83-.78V66.34c0-.64-.06-.75-.79-.75H67.59c-.64,0-.74.06-.74.78q0,7.77,0,15.54c0,.74,0,.82.86.82ZM88.53,82h0Z"/>
          <path d="M85.62,71.81H69a1.18,1.18,0,0,1-1.18-1.18V67.71A1.18,1.18,0,0,1,69,66.54H85.62a1.17,1.17,0,0,1,1.17,1.17v2.92A1.17,1.17,0,0,1,85.62,71.81ZM69.4,70.22H85.2V68.13H69.4Z"/>
          <g>
            <rect x="68.59" y="73.58" width="2.39" height="2.43" rx="0.38"/>
            <path d="M70.61,76.4H69a.76.76,0,0,1-.77-.77V74a.77.77,0,0,1,.77-.77h1.64a.77.77,0,0,1,.77.77v1.68A.76.76,0,0,1,70.61,76.4Zm0-2.45L69,74l0,1.65,1.6,0Zm0,1.66Z"/>
          </g>
          <g>
            <rect x="73.59" y="73.58" width="2.41" height="2.4" rx="0.38"/>
            <path d="M75.63,76.38H74a.77.77,0,0,1-.77-.78V74a.77.77,0,0,1,.77-.78h1.66a.77.77,0,0,1,.77.78V75.6A.77.77,0,0,1,75.63,76.38ZM74,74l0,1.62,1.64,0,0-1.6Zm1.64,0Z"/>
          </g>
          <g>
            <rect x="78.58" y="73.57" width="2.4" height="2.41" rx="0.38"/>
            <path d="M80.6,76.38H79a.76.76,0,0,1-.77-.77V74a.76.76,0,0,1,.77-.77H80.6a.77.77,0,0,1,.78.77v1.66A.77.77,0,0,1,80.6,76.38ZM79,74v1.64l1.62,0,0-1.64Zm0,0Z"/>
          </g>
          <g>
            <rect x="83.6" y="73.59" width="2.38" height="2.43" rx="0.38"/>
            <path d="M85.61,76.42H84a.78.78,0,0,1-.78-.78V74A.77.77,0,0,1,84,73.2h1.63a.77.77,0,0,1,.77.77v1.67A.78.78,0,0,1,85.61,76.42Zm0-2.45L84,74l0,1.65,1.59,0Zm0,1.65Z"/>
          </g>
          <g>
            <rect x="68.6" y="78.57" width="2.4" height="2.4" rx="0.38"/>
            <path d="M70.63,81.37H69a.78.78,0,0,1-.78-.78V79a.78.78,0,0,1,.78-.78h1.65a.77.77,0,0,1,.77.78v1.64A.77.77,0,0,1,70.63,81.37ZM69,79v1.62l1.63,0,0-1.62Zm0,0Z"/>
          </g>
          <g>
            <rect x="73.59" y="78.57" width="2.4" height="2.41" rx="0.38"/>
            <path d="M75.61,81.38H74a.78.78,0,0,1-.78-.78V79a.78.78,0,0,1,.78-.78h1.64a.78.78,0,0,1,.77.78V80.6A.78.78,0,0,1,75.61,81.38ZM74,79V80.6l1.62,0,0-1.63Zm0,0Z"/>
          </g>
          <g>
            <rect x="78.6" y="78.59" width="2.39" height="2.43" rx="0.38"/>
            <path d="M80.61,81.42H79a.78.78,0,0,1-.78-.78V79a.78.78,0,0,1,.78-.78h1.63a.78.78,0,0,1,.78.78v1.67A.78.78,0,0,1,80.61,81.42Zm0-2.45L79,79l0,1.65,1.59,0Zm0,1.65Z"/>
          </g>
          <g>
            <rect x="83.58" y="78.59" width="2.4" height="2.4" rx="0.38"/>
            <path d="M85.6,81.39H84a.77.77,0,0,1-.77-.77V79A.77.77,0,0,1,84,78.2H85.6a.77.77,0,0,1,.78.77v1.65A.77.77,0,0,1,85.6,81.39Zm0-2.42L84,79l0,1.63,1.6,0Zm0,1.63Z"/>
          </g>
        </g>
      </g>
      <path d="M81.43,55a1.17,1.17,0,0,1-.65-.19c-3.3-2.14-7-.06-7.19,0a1.19,1.19,0,1,1-1.19-2.07c.21-.12,5.13-2.91,9.68,0a1.2,1.2,0,0,1-.65,2.2Z"/>
      <path d="M85.25,49.58a1.23,1.23,0,0,1-.63-.18c-7.22-4.52-14.52-.18-14.83,0a1.19,1.19,0,0,1-1.24-2c.36-.22,8.85-5.31,17.34,0A1.19,1.19,0,0,1,86.27,49,1.21,1.21,0,0,1,85.25,49.58Z"/>
      <path d="M88.84,44.63a1.15,1.15,0,0,1-.56-.15c-10.83-5.88-22,0-22.14,0A1.19,1.19,0,0,1,65,42.38c.5-.27,12.41-6.5,24.4,0A1.2,1.2,0,0,1,89.89,44,1.18,1.18,0,0,1,88.84,44.63Z"/>
    </g>
  </g>
</svg>
