<svg xmlns="http://www.w3.org/2000/svg" viewBox="0 0 155.57 155.57">
  <title>Lockers</title>
  <g>
    <g>
      <path d="M77.63,115.5H62.55c-1.69,0-2-.34-2-2v-70c0-1.57.38-2,2-2H93.16c1.51,0,1.9.39,1.9,1.91v70.1c0,1.64-.36,2-2,2Zm14.57-2.86V44.37H63.35v68.27Z"/>
      <path d="M73.41,74.3a4.2,4.2,0,1,1-4.19,4.21A4.19,4.19,0,0,1,73.41,74.3ZM75,78.49a1.56,1.56,0,1,0-1.5,1.57A1.53,1.53,0,0,0,75,78.49Z"/>
      <path d="M77.8,94.75c-2.29,0-4.58,0-6.86,0-1.1,0-1.77-.8-1.49-1.7a1.29,1.29,0,0,1,1.33-1h14a1.32,1.32,0,0,1,1.42,1.33,1.34,1.34,0,0,1-1.43,1.32C82.43,94.77,80.11,94.75,77.8,94.75Z"/>
      <path d="M77.78,62.25h6.61c1.15,0,1.76.45,1.78,1.31s-.61,1.35-1.74,1.35H71.21a4.21,4.21,0,0,1-.5,0,1.33,1.33,0,0,1-1.31-1.35,1.3,1.3,0,0,1,1.36-1.29c1.89,0,3.79,0,5.69,0Z"/>
      <path d="M77.79,100c-2.32,0-4.63,0-7,0a1.31,1.31,0,0,1-1.36-1.77c.3-.75.92-.88,1.64-.88,4.13,0,8.26,0,12.38,0,.42,0,.84,0,1.26,0a1.35,1.35,0,0,1,1.41,1.35,1.33,1.33,0,0,1-1.44,1.3C82.42,100,80.1,100,77.79,100Z"/>
      <path d="M77.85,57h6.69c1,0,1.6.48,1.63,1.28s-.59,1.36-1.64,1.36H71.07c-1.07,0-1.67-.5-1.68-1.33S70,57,71.07,57Z"/>
      <path d="M77.74,54.42c-2.32,0-4.63,0-6.94,0a1.77,1.77,0,0,1-1.23-.76,1.46,1.46,0,0,1,.14-1.29,1.56,1.56,0,0,1,1.13-.51c4.63,0,9.26,0,13.89,0a1.31,1.31,0,0,1,1.44,1.29c0,.79-.55,1.32-1.49,1.33Z"/>
      <path d="M77.73,105.21H71c-1.07,0-1.66-.5-1.64-1.35s.58-1.27,1.62-1.28H84.57c1,0,1.59.49,1.6,1.31s-.58,1.31-1.58,1.32C82.3,105.22,80,105.21,77.73,105.21Z"/>
      <path d="M77.79,135.08a57.29,57.29,0,1,1,57.29-57.29A57.35,57.35,0,0,1,77.79,135.08Zm0-110a52.67,52.67,0,1,0,52.66,52.67A52.73,52.73,0,0,0,77.79,25.12Z"/>
    </g>
  </g>
</svg>
